<?xml version="1.0" encoding="utf-8"?>
<!-- Generator: Adobe Illustrator 22.1.0, SVG Export Plug-In . SVG Version: 6.00 Build 0)  -->
<svg version="1.1" id="圖層_1" xmlns="http://www.w3.org/2000/svg" xmlns:xlink="http://www.w3.org/1999/xlink" x="0px" y="0px"
	 viewBox="0 0 1070 993" style="enable-background:new 0 0 1070 993;" xml:space="preserve">
<style type="text/css">
	.st0{fill:#F99E49;}
	.st1{fill:#916545;}
	.st2{fill:#EFEFEF;}
	.st3{fill:#FFFFFB;}
</style>
<title>百變怪狐狸</title>
<g id="_x37_d9216fc-3e79-4bc4-a8d5-43a771b35fd8">
	<path class="st0" d="M1002.6,630.6c3.2-0.6,6.7,0.4,8,3.6c1.1,2.6,2.1,5.2,3,7.8c1.2,1.2,2.2,2.4,3.3,3.7c0.5,0.2,1,0.4,1.4,0.7
		c2.5,1.6,4.8,3.5,6.9,5.7L970,519.7c-5.4-12.9-9.7-24.2-24.3-29.1c-6.3-2.1-13.2-3.3-19.7-5c-12.6-3.4-25.2-7.1-37.6-11.1
		c-12.9-4.2-25.7-8.6-38.3-13.4c-5.9-2.2-11.8-4.5-17.6-6.9l-5-2l-1.5-0.6l-1.4-0.6l-6.2-2.7c-27.7-12.2-54.6-25.9-80.7-41.1
		c-2-1.2-4.2-2.1-6.5-2.7l-122.9-99.2c0.3-4.5,0.6-9.1,1-13.6c5.8,4.9,14.4,6.1,21.1-1.2l6.5-7.2c26.1-10.8,49.5-27.2,68.5-48.2
		c3.8-3.9,5.2-9.5,3.9-14.8l104.5-75.4c5.7-4.2,9.1-10.8,7.8-17.5l14.5-6.8c7-3.3,16.9-9.6,25-8.4c8.8,1.3,17.7-2.2,20.2-11.5
		c0.6-2.3,0.7-4.7,0.2-7l9.4-4.9c2.9-1.5,5.2-4,6.5-7c0.3-0.1,0.6-0.2,0.9-0.3l38.8-14.9c4.7-1.6,8.1-5.5,9.2-10.3
		c0.9-0.5,1.7-1.2,2.4-1.9l1.5-1.5c1.2-1.1,2.1-2.5,2.6-4.1c1.5-3.1,1.5-6.7,0-9.8c-0.5-1.6-1.4-3-2.6-4.1c-2.4-2.4-5.6-3.7-9-3.7
		c-3.3,0.1-6.6,1.4-9,3.7l-1.5,1.5c-1.2,1.1-2.1,2.5-2.6,4.1c-0.5,0.9-0.8,1.8-0.9,2.8L891.6,57c-1.4,0.5-2.6,1.2-3.8,2.1
		c-4.5-1.4-9.3-0.9-13.4,1.3l-39.1,20.2c-2.8,1.5-5,3.9-6.3,6.7c-11.4,4.8-22.5,11-33.4,16.1l-39.2,18.4c-4.2-1.3-8.7-0.7-12.3,1.7
		l-18.5,12.1c-0.8,0.5-1.5,1.1-2.2,1.7c-4.3,2.3-7.1,6.6-7.6,11.5c-3.2-0.2-6.5,0.6-9.2,2.3c-2.9,1.8-5.7,3.6-8.5,5.5
		c-2.2-3.9-6-6.6-10.5-7.3c-68-13.8-137.6-17.4-206.6-10.6c-1.9,0.2-3.8,0.6-5.7,1.4l-32-0.9c-4.4,0-8.6,1.7-11.7,4.8
		c-3.5-1-7-1.5-10.6-1.5c-5-1.1-10.1-1.4-15.2-0.8c-11.9,1.5-21.8,8-23.5,20.7c-0.2,2-0.2,4,0,6c-12.5-10.6-25.7-20.4-39.4-29.4
		c-2-1.4-4.4-2.1-6.8-2.1c-45-34.3-94.7-61.9-147.7-81.7c-4-1.3-8.4-0.6-11.8,2.1l-31.1-21.5c-6.3-4.3-15.8-1.2-19.4,5.1
		c-4.1,7-1.2,15,5.1,19.4l119.6,82.6c3.5,2.2,7.8,2.6,11.6,1.1l54.1,44.5c3.4,2.8,7.5,4.6,11.9,5.2l104.2,87.1
		c2.8,2.4,6.1,4,9.7,4.8l16.3,14.5l1.2,2.7c-0.5,1.9-1.1,3.8-1.6,5.7c-0.1,0.5-0.2,0.9-0.3,1.1s-0.2,0.4-0.3,0.6
		c-0.8,1.5-1.5,3-2.3,4.5c-0.8,1.5-1.6,2.9-2.6,4.3c-0.6,0.9-1.7,2.4-2,2.8c-0.9,1.1-1.9,2.1-2.9,3.1c-22.5,12.8-43,28.8-60.7,47.6
		c-5.7,0.2-11.1,2.3-15.4,6c-51.3,41-108.9,73.3-170.6,95.8c-1.7,0.6-3.3,1.4-4.8,2.4c-2.8-1.5-5.9-2.1-9.1-1.8
		c-22.4,2.5-44.4,7.8-65.4,16c-3.5,0-6.9,1-9.8,2.9l-5.8,3.8c-9.4,6.2-13.4,18.5-7.5,28.6c0.2,0.3,0.4,0.7,0.6,1
		c-2.7,3.2-5.2,6.6-7.3,10.2c-7.5,13-11,28.1-15.1,42.5L49.5,675l-13.4,47c-4.7,16.5-11.1,33.4-12.5,50.8c-0.1,1.6-0.2,3.1-0.1,4.7
		l-0.4,0.4l-4.7,6c-2.2,3.3-3.4,7.2-3.6,11.1c-0.7,2.6-0.7,5.3,0,7.9c0.2,4,1.4,7.8,3.6,11.1l4.7,6l6,4.7c3.3,2.2,7.2,3.4,11.1,3.6
		c4,0.9,8.1,0.7,11.9-0.5l4.1-1.2c3.8-0.9,7.3-2.7,10.2-5.3c0.1-0.1,0.3-0.2,0.4-0.3c13.7-0.4,26.2-7.9,33.1-19.8
		c1.6-0.7,3.1-1.6,4.5-2.5c11,5.4,23.6,3.5,33.7-4.8c6.4-0.5,12.5-3.1,17.4-7.3c4.6,1.3,9.2,2.8,13.7,4.5l1.3,0.5
		c0.4,0.2,2.5,1,3,1.2c2.7,1.2,5.4,2.5,8,3.9c6,3.1,11.7,6.5,17.3,10.2c2.4,1.6,4.7,3.3,7,5c1.3,1.1,2.6,2.1,3.8,3.2
		c4.8,4.1,9.4,8.5,13.7,13.1c2.1,2.2,4,4.4,6,6.7c0.7,0.8,1.4,1.5,2.1,2.4l0.8,1.2c3.9,5.4,7.5,11.1,10.9,16.9
		c0.2,0.4,0.5,0.8,0.7,1.1c3.4,12.9,6.9,25.8,10.3,38.7c1.2,4.4,3.4,8.4,6.5,11.8c-1.7,24.6,14.2,50.3,37,60.4
		c29.9,13.3,64.9,9.3,96.7,9c31.1-0.3,62.1-1,93.2-2c5.3,5.7,12.7,8.8,20.4,8.6l159-3.9c49.5-1.2,121.5,5.4,140.7-53.8
		c2.2-6.9,3-14.1,2.3-21.3l1.8-16.6c0.8-2.5,1.6-5,2.4-7.5c10-16.6,20.7-32.7,32.2-48.2c1.7-2.4,3.5-4.7,5.3-7.1
		c0.8-1,2.7-3.5,3-3.7c4.4-5.5,8.9-11,13.4-16.4c5.3-6.1,10.6-12.2,16.2-18.1c3-0.9,6.1-1.7,9.2-2.4c2-0.4,4.1-0.9,6.2-1.2
		c0.9-0.1,1.7-0.4,2.6-0.6c3.6-0.4,7.1-0.5,10.7-0.3c1,0,2.1,0,3.1,0c8,1.4,16.2,2.2,24.3,2.5c0.8,0,1.6,0,2.4,0l58.4,32.7
		c19.2,10.8,45.7-2.6,44.9-25.8C1044.2,734.9,1029.4,680,1002.6,630.6z M664.2,183.3l-1.3,1.2c-0.6-0.4-1.2-0.8-1.9-1.2L664.2,183.3
		z M394.1,906.1c0.1-0.3,0.2-0.5,0.4-0.7l0.3,0.3c0.3,0.7,0.5,1.5,0.8,2.2L394.1,906.1z"/>
</g>
<g id="_x37_55cefe8-897c-4cba-a65d-c64016e1da7c">
	<path class="st1" d="M435,289.7l-76.9-58.9c-1.8-1.3-3.8-2.3-6-2.8c-81.6-68.1-166.8-131.8-255-191c-5.1-3.2-11.3-4-17.1-2.4
		c-0.4-2.3-0.9-4.6-1.4-6.9c-2.3-11.3-20.8-11.4-23,0c-1.3,6.5-2.5,12.9-3.8,19.4C38.4,63.2,34,86.1,33.3,107
		c-0.2,5.3-0.2,10.6-0.1,15.9c-10.4,45.4-12,92.3-5,138.3c-4.6,17.4-4.7,35.6-0.4,53.1c1.9,6.6,6.7,12.1,13,14.8l1.1,10.5
		c-4.1,2.6-7.4,6.4-9.4,10.8c-4.3,10.2-0.7,23.4,9.5,28.9c8.3,4.5,11.5,8.3,13.8,17.6c-0.7-2.6,0.3,4.7,0.3,5.9c0,0.4,0,0.8-0.1,1.1
		c-0.2,1-0.4,2-0.7,3c-3.7,3.2-6.6,7.2-8.3,11.8l-3.7,9.1c-3.6,9,2.3,21.8,10.6,26.1c2.7,1.4,5.6,2.3,8.6,2.7l7.7,15.6
		c1.2,2.5,3,4.6,5.2,6.3l0.3,0.6c3.6,6.6,12.3,12.2,20,11.5c110.2-10.6,214.4-55.1,298.2-127.4c4.3-3.9,6.7-9.5,6.6-15.3l34.6-18.1
		c7.1-3.7,11.5-12.1,11.5-20C446.5,300.8,441.8,294.9,435,289.7z"/>
	<path class="st1" d="M1027.8,343.4c-0.7-0.5-1.5-1-2.2-1.4c20-57,27.2-118,19.4-178.3c-0.6-5.1-2.6-10-5.8-14
		c-2.8-19.6-5.5-39.2-8.3-58.8c-0.1-0.7-0.3-1.4-0.5-2.1l-2.4-26.6c-0.4-4.9-2.3-9.7-5.4-13.5c-0.2-3.5-0.3-6.9-0.5-10.5
		c-0.4-8.3-4.9-15.9-12.8-19.1c-8.5-3.4-15.9-1.1-22.8,4.3l-40.3,31.8c-1.5,1.2-2.8,2.7-3.7,4.5c-3.2,0.1-6.2,1.1-8.9,2.9
		l-87.7,59.7c-5.4,3.6-9,9.3-10.1,15.7l-65.7,47.6c-1.7,1.3-3.3,2.7-4.7,4.4c-5.8-2.3-12.2-1.7-17.5,1.5
		c-12.9,8.1-22.3,20.8-26.5,35.4L649,274.8c-5.5,3.4-9.1,9-10,15.4c-1.5,1-2.9,2.2-4.2,3.4c-7.4,4.2-12.1,11.9-12.3,20.4l0.8,6.2
		c1.1,3.9,3.1,7.4,6,10.2l4.7,3.6c2.9,1.7,6.2,2.7,9.6,3c1.7,2.4,4,4.4,6.5,5.9l9,5.3c1.7,4,4.6,7.3,8.4,9.5l11,6
		c0.8,6.1,4.5,11.5,9.9,14.5L822,445.6c1.7,2.8,4.1,5.1,7.1,6.5c44.9,21.1,92.3,36.3,141.1,45.2c9.9,1.8,17.9-1.7,22.5-8.6
		c1.5-1.3,2.8-2.9,3.8-4.6l25.7-41.4c4.3-6.9,3.8-15.7-1.1-22.2c0.8-9.5-2-19-7.7-26.6l11.6-13.5
		C1047.8,380.4,1048.7,346.3,1027.8,343.4z"/>
</g>
<g id="_x35_f3ffa30-e402-4626-974f-1d02a5d07cde">
	<path class="st2" d="M253.1,861.2c-1.1-2.5-2.7-4.7-4.6-6.7c-2-2.5-4-5-6-7.5c-1.4-1.5-3.1-2.8-5-3.7c-1.2-3.5-3.3-6.7-6-9.2
		l-11.8-10.7c-2.1-13.6-11.7-24.9-24.8-29.2c-8.5-2.5-16.8-1.3-24.8,2.1l-0.4,0.2c-2.9-2.3-6.2-4.2-9.7-5.5
		c-18.2-6.7-38.1-3.9-55.1,4.7c-12.6,6.4-17.2,25.1-9.6,36.8c8.3,12.8,23.3,16.4,36.8,9.6c0.4-0.2,0.7-0.4,0.9-0.5l0.9-0.1
		c0.7-0.2,1.3-0.3,2-0.5h0.7c1.7,0.2,3.3,0.4,5,0.5l0,0c5.5,7.3,13.6,12.2,22.7,13.7l16.2,8.8c2.2,1.2,4.5,2,6.8,2.6l6.2,5.6
		c4.5,4.2,10.2,6.9,16.3,7.7l6,7.5c0.1,0.1,0.3,0.3,0.4,0.4c3.9,7.6,11.7,12.4,20.3,12.4c12.1,0,23.7-10.6,23.1-23.1
		C259.4,871.2,257.1,865.6,253.1,861.2z"/>
	<path class="st2" d="M820.1,861.2c1.1-2.5,2.6-4.7,4.5-6.7c1.9-2.5,3.8-5,5.7-7.5c1.4-1.5,3-2.8,4.8-3.7c1.2-3.5,3.1-6.7,5.7-9.2
		l11.3-10.7c1.7-13.2,11.8-25.5,23.9-29.2c8.2-2.5,16.2-1.3,23.9,2.1l0.4,0.2c2.8-2.3,5.9-4.2,9.3-5.5c17.5-6.7,36.7-3.9,53.1,4.7
		c12.1,6.4,16.6,25.1,9.3,36.8c-8,12.8-22.4,16.4-35.4,9.6c-0.4-0.2-0.7-0.4-0.9-0.5l-0.8-0.1L933,841h-0.7
		c-1.6,0.2-3.2,0.4-4.8,0.5l0,0c-5.2,7.2-13,12.2-21.8,13.7l-15.6,8.8c-2.1,1.2-4.3,2-6.6,2.6l-6,5.6c-4.2,4.2-9.7,6.9-15.6,7.7
		l-5.7,7.5c-0.1,0.1-0.3,0.3-0.4,0.4c-3.6,7.5-11.2,12.4-19.5,12.5c-11.6,0-22.8-10.6-22.3-23.1
		C814.1,871.2,816.3,865.6,820.1,861.2z"/>
</g>
<g id="_x36_6a756a7-96d0-423a-8d80-ae508d7f201f">
	<path class="st3" d="M547.6,884.5c-0.9-0.2-1.8-0.4-2.8-0.6l0.4-7.9c0.3-6.7-4.3-12.9-10.2-15.6c1.5-0.1,2.9-0.3,4.3-0.5
		c4.7-0.6,0.9-3.1-3.9-3.3c-110.3-3.2-219.5-10.5-321.5-54.7c-4.4-1.9-8.2,4.5-3.8,6.5c6.2,2.7,12.4,5.2,18.6,7.7
		c-2.3,0.9-4.5,2.3-6.2,4.1c9.3,9.2,16.3,21.2,21.8,32.6c2.4,5,4.8,10.2,6.9,15.5c0.2,0.2,0.4,0.4,0.7,0.6c2.5,3.1,5.5,5.6,9,7.5
		l0.1,0.4c-0.4,0.1-0.9,0.2-1.4,0.3c-1.7,0.3-3.2,1.4-4.1,3c2.6,7.9,4.2,16.1,4.9,24.4c0.7,1.8,1.5,3.6,2.2,5.4
		c-0.4,0.1-0.8,0.2-1.1,0.3l-0.9,0.3v0.8c0,3.8-2.7,7-6.5,7.5c9.8,17.9,19.5,37.2,33.7,51.9c25.4,6.8,60.2,5.1,88.5,5.1h144.5
		c10.7,0,17.8-4.1,18.7-9c3.8-22.6,7.6-45.3,11.4-68c1.2-0.5,2.3-1.2,3.3-2C559.1,892.8,556.7,886.6,547.6,884.5z"/>
	<path class="st3" d="M522.8,884.5c0.9-0.2,1.8-0.4,2.8-0.6l-0.4-7.9c-0.3-6.7,4.3-12.9,10.2-15.6c-1.5-0.1-2.9-0.3-4.3-0.5
		c-4.7-0.6-0.9-3.1,3.9-3.3c110.2-3.2,219.5-10.5,321.5-54.7c4.4-1.9,8.2,4.5,3.8,6.5c-6.2,2.7-12.4,5.2-18.6,7.7
		c2.3,0.9,4.5,2.3,6.2,4.1c-9.3,9.2-16.3,21.2-21.8,32.6c-2.4,5-4.8,10.2-6.9,15.5c-0.2,0.2-0.4,0.4-0.7,0.6c-2.4,3.1-5.5,5.6-9,7.5
		l-0.1,0.4c0.5,0.1,0.9,0.2,1.4,0.3c1.7,0.3,3.2,1.4,4.1,3c-2.6,7.9-4.2,16.1-4.9,24.4c-0.7,1.8-1.5,3.6-2.2,5.4
		c0.4,0.1,0.8,0.2,1.2,0.3l0.9,0.3c0,0.3,0,0.5,0,0.8c0,3.8,2.7,7,6.5,7.5c-9.8,17.9-19.5,37.2-33.7,51.9
		c-25.4,6.8-60.2,5.1-88.5,5.1H549.4c-10.7,0-17.9-4.1-18.7-9c-3.8-22.6-7.6-45.3-11.5-68c-1.2-0.5-2.3-1.2-3.3-2
		C511.3,892.8,513.7,886.6,522.8,884.5z"/>
</g>
<g id="_x38_da978c9-3cfe-4168-98a5-2c7f33de82ea">
	<path d="M380,158.7c50.5-13.7,102.1-21.7,154.5-21.5s104.3,8,155.8,17.5c10.3,1.9,14.8-13.9,4.4-15.8
		c-52.8-9.8-106.3-17.9-160.1-18.1c-53.8-0.2-107,7.9-158.9,22C365.5,145.6,369.8,161.5,380,158.7L380,158.7z"/>
	<path d="M307.8,894.3c-0.6,13.7,12.3,22.2,24,25.9c14.9,4.8,31.3,3.9,46.7,3.9l108.6,0.1l108.6,0.1c35.3,0,70.9,1.6,106.1-0.4
		c16.4-0.9,34.1-3.3,48.3-12.3c11.3-7.1,21.6-19.3,17.3-33.5c-3.1-10.1-18.9-5.8-15.8,4.4c3.1,10.2-13.4,17.6-20.8,20.1
		c-13.2,4.4-27.3,5.1-41.2,5.3c-30.8,0.5-61.6,0-92.4,0l-185.9-0.1c-16.9,0-33.8,0.3-50.8-0.1c-7.8-0.2-15.7-0.6-23.2-2.9
		c-4.7-1.4-13.3-4.5-13.1-10.5C324.6,883.8,308.2,883.8,307.8,894.3L307.8,894.3z"/>
	<path d="M92.3,494.5c-11.5,87.8-57.7,166.8-74.7,253.4c-3.8,19.4-9.2,43.1-1.9,62.1c6.8,17.8,24.6,26.4,43,24
		c20.9-2.7,36.3-18.1,54.3-27.5c18.8-9.7,40.5-12.1,60.9-6.7c45.7,12.1,72.3,59.3,74.5,104.2c0.5,10.5,16.9,10.6,16.4,0
		c-1.9-39.7-19.5-79.1-51.8-103.3c-33.9-25.3-80.2-26.2-115.8-4.1C82,806,63.9,822.9,44.5,816.9c-21.9-6.7-15.7-37.3-12.9-54.2
		c7.1-43.5,22.5-85.3,37.2-126.6c16.4-46.3,33.5-92.8,39.9-141.7C110.1,484,93.7,484.1,92.3,494.5L92.3,494.5z"/>
	<path d="M805.6,904c0.6,17.6-5.8,34.6-17.7,47.5c-13.3,13.9-29.7,16.9-47.3,18.3c-43.1,3.3-86.6,3.3-129.8,3.7
		c-89.5,0.8-179.5,2.1-268.8-2.9c-19.2-1.1-37.8-1.1-53.6-13.7s-24.3-33.2-23.5-52.9c0.4-10.6-16-10.6-16.4,0
		c-0.5,19.8,6.1,39.1,18.6,54.5c13.6,16.9,32.8,24.7,54,26.9c44.4,4.6,89.6,4,134.2,4.5c47.3,0.4,94.6,0.5,141.8,0.1
		c46.9-0.3,94.1-0.3,140.9-3.6c22.4-1.6,43.7-5.5,60.3-22c15.8-16.1,24.4-37.9,23.8-60.4C821.7,893.5,805.2,893.5,805.6,904
		L805.6,904z"/>
	<path d="M52.8,18.5C161.5,85.7,266.9,157.8,365,239.8c29,24.2,57.5,49.1,85.3,74.7c7.8,7.1,19.4-4.5,11.6-11.6
		c-95.4-87-197.4-166.5-305.2-237.7C125.2,44.3,93.3,24,61.1,4.2C52.2-1.3,43.8,12.9,52.8,18.5L52.8,18.5z"/>
	<path d="M49.8,7.2c-37.3,82-43.4,179-32.1,267.4c3,24.5,7.8,48.8,14.4,72.6l3.8-9.3l-19.4,9.3c-3.7,1.8-5.4,7.9-3,11.2l15.3,20.9
		c2.3,3.5,4.8,6.9,7.5,10.1c1.6,1.7,3.6,3,4.9,5.1c4.5,7.6,2,17.4-5.6,21.9c-0.4,0.2-0.7,0.4-1.1,0.6c-4.2,2-4.7,7.6-3,11.2
		c12.3,25.1,29.7,47.5,42,72.6c1.4,2.6,4.2,4.1,7.1,4.1c58.4-5.8,115.5-20.6,169.4-43.8c50.5-21.9,97.2-51.4,140.6-85.2
		c24.8-19.3,48.5-40.1,71.3-61.7c7.7-7.3-3.9-18.9-11.6-11.6c-78.5,74-167.8,137.1-272.6,167.2c-31.7,9.1-64.2,15.3-97.1,18.6
		l7.1,4.1c-12.3-25.1-29.7-47.5-42-72.6l-3,11.2c13.3-6.2,19.3-22.4,16-36.2c-1.7-7.5-6-11.4-10.7-16.8c-7.5-8.6-13.7-18.8-20.4-28
		l-3,11.2l19.4-9.3c3.2-1.5,4.7-6,3.8-9.3c-23.5-83.4-25.4-176.2-6-260.6c5.1-23,12.5-45.3,22.1-66.8C68.4,5.9,54.3-2.4,49.8,7.2
		L49.8,7.2z"/>
	<path d="M54.8,19.2c66.6,25.4,135,46.1,200.3,74.9c58.6,25.9,119.1,59.2,156.7,113c20.8,30.1,33.3,65.1,36.2,101.5
		c0.9,10.5,17.3,10.6,16.4,0c-2.9-34.2-12.5-67.5-30.2-97.1c-16.8-28.1-39.9-51.8-65.7-71.7c-56.9-43.7-125.4-70.2-192.4-94.4
		c-39-14.1-78.2-27.3-117-42.1C49.3-0.3,45,15.5,54.8,19.2L54.8,19.2z"/>
	<path d="M52.8,18.5C161.5,85.7,266.9,157.8,365,239.8c29,24.2,57.5,49.1,85.3,74.7c7.8,7.1,19.4-4.5,11.6-11.6
		c-95.4-87-197.4-166.5-305.2-237.7C125.2,44.3,93.3,24,61.1,4.2C52.2-1.3,43.8,12.9,52.8,18.5L52.8,18.5z"/>
	<path d="M49.8,7.2c-37.3,82-43.4,179-32.1,267.4c3,24.5,7.8,48.8,14.4,72.6l3.8-9.3l-19.4,9.3c-3.7,1.8-5.4,7.9-3,11.2l15.3,20.9
		c2.3,3.5,4.8,6.9,7.5,10.1c1.6,1.7,3.6,3,4.9,5.1c4.5,7.6,2,17.4-5.6,21.9c-0.4,0.2-0.7,0.4-1.1,0.6c-4.2,2-4.7,7.6-3,11.2
		c12.3,25.1,29.7,47.5,42,72.6c1.4,2.6,4.2,4.1,7.1,4.1c58.4-5.8,115.5-20.6,169.4-43.8c50.5-21.9,97.2-51.4,140.6-85.2
		c24.8-19.3,48.5-40.1,71.3-61.7c7.7-7.3-3.9-18.9-11.6-11.6c-78.5,74-167.8,137.1-272.6,167.2c-31.7,9.1-64.2,15.3-97.1,18.6
		l7.1,4.1c-12.3-25.1-29.7-47.5-42-72.6l-3,11.2c13.3-6.2,19.3-22.4,16-36.2c-1.7-7.5-6-11.4-10.7-16.8c-7.5-8.6-13.7-18.8-20.4-28
		l-3,11.2l19.4-9.3c3.2-1.5,4.7-6,3.8-9.3c-23.5-83.4-25.4-176.2-6-260.6c5.1-23,12.5-45.3,22.1-66.8C68.4,5.9,54.3-2.4,49.8,7.2
		L49.8,7.2z"/>
	<path d="M54.8,19.2c66.6,25.4,135,46.1,200.3,74.9c58.6,25.9,119.1,59.2,156.7,113c20.8,30.1,33.3,65.1,36.2,101.5
		c0.9,10.5,17.3,10.6,16.4,0c-2.9-34.2-12.5-67.5-30.2-97.1c-16.8-28.1-39.9-51.8-65.7-71.7c-56.9-43.7-125.4-70.2-192.4-94.4
		c-39-14.1-78.2-27.3-117-42.1C49.3-0.3,45,15.5,54.8,19.2L54.8,19.2z"/>
	<path d="M1009.2,4.2c-109.9,67.9-216.3,141-315.5,224c-29,24.2-57.5,49.1-85.3,74.7c-7.8,7.1,3.8,18.7,11.6,11.6
		c94.3-86.1,195.3-164.7,301.8-235.1c31.6-20.8,63.4-41.2,95.7-61C1026.4,12.9,1018.2-1.4,1009.2,4.2L1009.2,4.2z"/>
	<path d="M1006.3,15.5c17.7,38.8,27,81.4,31.4,123.6c4.7,44.7,4.2,89.8-1.5,134.4c-2.9,23.5-7.6,46.7-14,69.4
		c-0.9,3.3,0.6,7.7,3.8,9.3l19.4,9.3l-3-11.2c-6.6,9.1-12.8,19.6-20.4,27.8c-4.9,5.2-9,9.6-10.8,17c-3.3,13.9,2.7,30.1,16,36.2
		l-3-11.2c-12.3,25.1-29.7,47.5-42,72.6l7.1-4.1c-57-5.7-112.8-20.3-165.2-43.3c-48.6-21.5-94-50.1-135.7-82.9
		c-23.9-18.8-46.7-38.8-68.7-59.6c-7.7-7.2-19.3,4.3-11.6,11.6c80.8,76.2,173,141,280.9,171.7c32.8,9.2,66.4,15.6,100.4,18.9
		c2.9,0.1,5.7-1.5,7.1-4.1c12.3-25.1,29.7-47.5,42-72.6c1.8-3.7,1.3-9.3-3-11.2c-7.9-3.9-11.2-13.5-7.2-21.4
		c0.2-0.4,0.4-0.7,0.6-1.1c1.1-1.8,2.8-2.7,4.3-4.2c2.6-3.1,5-6.4,7.2-9.8l16.1-22c2.5-3.4,0.8-9.5-3-11.2l-19.4-9.3l3.8,9.3
		c24.4-86.6,26.1-183,5.7-270.5c-5.5-23.9-13.3-47.2-23.4-69.6c-4.4-9.6-18.5-1.3-14.2,8.3L1006.3,15.5z"/>
	<path d="M1011.2,3.4c-69.1,26.3-140.1,47.9-207.7,78.1c-61.2,27.4-122.6,63.3-161,120.1c-21.6,31.9-33.3,68.8-36.5,107
		c-0.9,10.5,15.5,10.5,16.4,0c2.5-32.5,12.7-63.9,29.7-91.7c16.4-26.4,38.8-48.7,63.7-67.2c55.7-41.2,121.9-66.5,186.6-89.8
		c37.7-13.6,75.8-26.5,113.3-40.7C1025.3,15.4,1021.1-0.4,1011.2,3.4L1011.2,3.4z"/>
	<path d="M74,829.6c59.7,26.9,120.9,50.1,178.5,81.5c9.3,5.1,17.6-9.1,8.3-14.2c-57.6-31.4-118.8-54.5-178.5-81.5
		C72.7,811.1,64.3,825.2,74,829.6z"/>
	<circle cx="297.9" cy="626.7" r="34"/>
	<path d="M961.6,494.5c11.6,87.8,56.2,166.8,74.3,253c2.2,10.2,3.9,20.6,5,31c1,10.2,2,22.5-4.5,31.2c-12.6,17.2-36.4,4.5-49.6-4.2
		c-17.9-11.7-35-21.7-56.6-24.3c-20.6-2.4-41.5,1.5-59.9,11.2c-40.3,21.2-62.6,67.3-64.7,111.5c-0.5,10.6,15.9,10.5,16.4,0
		c1.9-39.8,22.7-81.2,59.7-98.9c18.8-8.8,40.1-10.5,60-4.9c21.2,6.1,36.8,22.4,57.1,30.5c15.7,6.3,35.8,5.1,48-7.9
		c14.9-16,11.4-40,8.5-59.7c-6.4-43.4-21.5-85.1-36.2-126.3c-16.4-46.3-34.7-93.2-41.1-142.2c-1.3-10.3-17.8-10.5-16.4,0
		L961.6,494.5z"/>
	<path d="M988.1,815.4c-59.7,26.9-120.9,50.1-178.5,81.5c-9.3,5.1-1,19.2,8.3,14.2c57.6-31.4,118.8-54.5,178.4-81.5
		C1006,825.2,997.7,811.1,988.1,815.4z"/>
	<ellipse transform="matrix(0.1602 -0.9871 0.9871 0.1602 30.1494 1288.7623)" cx="772.5" cy="626.7" rx="34" ry="34"/>
</g>
</svg>
