<?xml version="1.0" encoding="utf-8"?>
<!-- Generator: Adobe Illustrator 22.1.0, SVG Export Plug-In . SVG Version: 6.00 Build 0)  -->
<svg version="1.1" id="圖層_1" xmlns="http://www.w3.org/2000/svg" xmlns:xlink="http://www.w3.org/1999/xlink" x="0px" y="0px"
	 viewBox="0 0 1672.1 241.2" style="enable-background:new 0 0 1672.1 241.2;" xml:space="preserve">
<style type="text/css">
	.st0{fill:#AF33FF;}
	.st1{fill:#F99E49;}
	.st2{fill:#916545;}
	.st3{fill:#EFEFEF;}
	.st4{fill:#FFFFFB;}
	.st5{enable-background:new    ;}
</style>
<g id="Layer_1" xmlns:ev="http://www.w3.org/2001/xml-events">
	<g>
		<path class="st0" d="M1409.7,92.6V32.1h19.3c2.9,0,5.6,0.4,8.2,1c2.5,0.6,4.7,1.6,6.6,2.9c1.9,1.3,3.4,3,4.5,5.1s1.6,4.5,1.6,7.3
			c0,3-0.9,5.5-2.5,7.7c-1.6,2.1-3.8,3.8-6.6,4.9c1.7,0.5,3.2,1.1,4.5,2s2.4,1.9,3.3,3.1s1.6,2.6,2,4c0.5,1.5,0.7,3.1,0.7,4.7
			c0,2.9-0.5,5.4-1.6,7.6s-2.5,4-4.4,5.5s-4.1,2.6-6.6,3.3c-2.6,0.8-5.3,1.2-8.3,1.2h-20.7V92.6z M1419.8,57.6h9.6
			c1.5,0,2.9-0.2,4.2-0.6c1.3-0.4,2.4-0.9,3.3-1.7c0.9-0.7,1.7-1.6,2.2-2.7c0.6-1.1,0.8-2.3,0.8-3.7c0-1.5-0.3-2.8-0.8-3.9
			c-0.5-1.1-1.3-2-2.2-2.7c-1-0.7-2.1-1.2-3.4-1.5s-2.7-0.5-4.3-0.5h-9.5v17.3C1419.7,57.6,1419.8,57.6,1419.8,57.6z M1419.8,65.2
			v19.3h10.9c1.6,0,3-0.3,4.3-0.7c1.3-0.5,2.4-1.1,3.4-1.9c0.9-0.8,1.7-1.8,2.2-2.9c0.5-1.2,0.8-2.5,0.8-3.9c0-1.5-0.2-2.9-0.7-4.1
			s-1.1-2.2-2-3.1c-0.9-0.8-2-1.5-3.2-1.9c-1.3-0.5-2.7-0.7-4.3-0.7h-11.4L1419.8,65.2L1419.8,65.2z"/>
		<path class="st0" d="M1506.3,65.5h-24.9v19h29.1v8.1h-39.1V32.1h38.8v8.2h-28.8v17.1h24.9V65.5z"/>
		<path class="st0" d="M1574.8,40.4h-18.6v52.2h-9.9V40.4h-18.4v-8.2h46.9V40.4z"/>
		<path class="st0" d="M1615.2,78.6h-18.9l-4.2,14h-10.3l19.6-60.5h8.8l19.3,60.5h-10.3L1615.2,78.6z M1598.9,70h13.9l-6.9-23.7
			L1598.9,70z"/>
	</g>
	<path class="st0" d="M1644.3,8c10.7,0,19.5,8.7,19.5,19.5v69.8c0,10.7-8.7,19.5-19.5,19.5H1395c-10.7,0-19.5-8.7-19.5-19.5V27.5
		c0-10.7,8.7-19.5,19.5-19.5H1644.3 M1644.3,0H1395c-15.2,0-27.5,12.3-27.5,27.5v69.8c0,15.2,12.3,27.5,27.5,27.5h249.2
		c15.2,0,27.5-12.3,27.5-27.5V27.5C1671.7,12.3,1659.4,0,1644.3,0L1644.3,0z"/>
	<g>
		<g id="_x37_d9216fc-3e79-4bc4-a8d5-43a771b35fd8">
			<path class="st1" d="M243,152.5c0.8-0.1,1.6,0.1,1.9,0.9c0.3,0.6,0.5,1.2,0.7,1.9c0.3,0.3,0.5,0.6,0.8,0.9c0.1,0,0.2,0.1,0.3,0.2
				c0.6,0.4,1.2,0.8,1.7,1.4l-13.3-32c-1.3-3.1-2.3-5.8-5.9-7c-1.5-0.5-3.2-0.8-4.7-1.2c-3-0.8-6.1-1.7-9.1-2.7
				c-3.1-1-6.2-2.1-9.2-3.2c-1.4-0.5-2.8-1.1-4.3-1.7l-1.2-0.5l-0.4-0.1l-0.3-0.1l-1.5-0.7c-6.7-2.9-13.2-6.3-19.5-9.9
				c-0.5-0.3-1-0.5-1.6-0.7l-29.7-24c0.1-1.1,0.1-2.2,0.2-3.3c1.4,1.2,3.5,1.5,5.1-0.3l1.6-1.7c6.3-2.6,11.9-6.6,16.5-11.6
				c0.9-0.9,1.3-2.3,0.9-3.6l25.2-18.2c1.4-1,2.2-2.6,1.9-4.2l3.5-1.6c1.7-0.8,4.1-2.3,6-2c2.1,0.3,4.3-0.5,4.9-2.8
				c0.1-0.6,0.2-1.1,0.1-1.7l2.3-1.2c0.7-0.4,1.2-1,1.6-1.7c0.1,0,0.1,0,0.2-0.1l9.4-3.6c1.1-0.4,2-1.3,2.2-2.5
				c0.2-0.1,0.4-0.3,0.6-0.5l0.4-0.4c0.3-0.3,0.5-0.6,0.6-1c0.4-0.7,0.4-1.6,0-2.4c-0.1-0.4-0.3-0.7-0.6-1c-0.6-0.6-1.4-0.9-2.2-0.9
				s-1.6,0.3-2.2,0.9L225.5,9c-0.3,0.3-0.5,0.6-0.6,1c-0.1,0.2-0.2,0.4-0.2,0.7l-8.6,3.3c-0.3,0.1-0.6,0.3-0.9,0.5
				c-1.1-0.3-2.2-0.2-3.2,0.3l-9.4,4.9c-0.7,0.4-1.2,0.9-1.5,1.6c-2.8,1.1-5.4,2.6-8.1,3.9l-9.5,4.4c-1-0.3-2.1-0.2-3,0.4l-4.5,2.9
				c-0.2,0.1-0.4,0.3-0.5,0.4c-1,0.6-1.7,1.6-1.8,2.8c-0.8,0-1.6,0.1-2.2,0.6c-0.7,0.4-1.4,0.9-2.1,1.3c-0.5-0.9-1.5-1.6-2.5-1.8
				c-16.4-3.3-33.2-4.2-49.9-2.6c-0.5,0-0.9,0.2-1.4,0.3l-7.7-0.2c-1.1,0-2.1,0.4-2.8,1.1c-0.8-0.2-1.7-0.4-2.6-0.4
				c-1.2-0.3-2.4-0.3-3.7-0.2c-2.9,0.4-5.3,1.9-5.7,5c-0.1,0.5-0.1,1,0,1.4c-3-2.6-6.2-4.9-9.5-7.1C83.1,33.2,82.5,33,82,33
				c-10.9-8.3-22.9-14.9-35.7-19.7c-1-0.3-2-0.1-2.8,0.5L36,8.6c-1.5-1-3.8-0.3-4.7,1.2c-1,1.7-0.3,3.6,1.2,4.7l28.9,19.9
				c0.8,0.5,1.9,0.6,2.8,0.3l13,10.7c0.8,0.7,1.8,1.1,2.9,1.2l25.1,21c0.7,0.6,1.5,1,2.3,1.2l3.9,3.5l0.3,0.6
				c-0.1,0.5-0.3,0.9-0.4,1.4c0,0.1-0.1,0.2-0.1,0.3c0,0.1,0,0.1-0.1,0.1c-0.2,0.4-0.4,0.7-0.6,1.1s-0.4,0.7-0.6,1
				c-0.1,0.2-0.4,0.6-0.5,0.7c-0.2,0.3-0.5,0.5-0.7,0.7c-5.4,3.1-10.4,7-14.7,11.5c-1.4,0.1-2.7,0.6-3.7,1.4
				C77.9,101,64,108.8,49.1,114.2c-0.4,0.2-0.8,0.3-1.2,0.6c-0.7-0.4-1.4-0.5-2.2-0.4c-5.4,0.6-10.7,1.9-15.8,3.9
				c-0.8,0-1.7,0.2-2.4,0.7l-1.4,0.9c-2.3,1.5-3.2,4.5-1.8,6.9c0,0.1,0.1,0.2,0.2,0.2c-0.7,0.8-1.2,1.6-1.8,2.5
				c-1.8,3.1-2.7,6.8-3.6,10.2l-6.6,23l-3.2,11.4c-1.1,4-2.7,8.1-3,12.3c0,0.4,0,0.8,0,1.1l-0.1,0.1l-1.1,1.5
				c-0.5,0.8-0.8,1.7-0.9,2.7c-0.2,0.6-0.2,1.3,0,1.9c0,1,0.3,1.9,0.9,2.7l1.1,1.4l1.4,1.1c0.8,0.5,1.7,0.8,2.7,0.9
				c1,0.2,2,0.2,2.9-0.1l1-0.3c0.9-0.2,1.8-0.7,2.5-1.3l0.1-0.1c3.3-0.1,6.3-1.9,8-4.8c0.4-0.2,0.7-0.4,1.1-0.6
				c2.6,1.3,5.7,0.9,8.1-1.2c1.5-0.1,3-0.7,4.2-1.8c1.1,0.3,2.2,0.7,3.3,1.1l0.3,0.1c0.1,0,0.6,0.2,0.7,0.3c0.7,0.3,1.3,0.6,1.9,0.9
				c1.4,0.7,2.8,1.6,4.2,2.5c0.6,0.4,1.1,0.8,1.7,1.2c0.3,0.3,0.6,0.5,0.9,0.8c1.2,1,2.3,2,3.3,3.2c0.5,0.5,1,1.1,1.4,1.6
				c0.2,0.2,0.3,0.4,0.5,0.6l0.2,0.3c0.9,1.3,1.8,2.7,2.6,4.1c0.1,0.1,0.1,0.2,0.2,0.3c0.8,3.1,1.7,6.2,2.5,9.3
				c0.3,1.1,0.8,2,1.6,2.8c-0.4,5.9,3.4,12.1,8.9,14.6c7.2,3.2,15.7,2.2,23.3,2.2c7.5-0.1,15-0.2,22.5-0.5c1.3,1.4,3.1,2.1,4.9,2.1
				l38.4-0.9c11.9-0.3,29.3,1.3,34-13c0.5-1.7,0.7-3.4,0.6-5.1l0.4-4c0.2-0.6,0.4-1.2,0.6-1.8c2.4-4,5-7.9,7.8-11.6
				c0.4-0.6,0.9-1.1,1.3-1.7c0.2-0.2,0.7-0.8,0.7-0.9c1.1-1.3,2.1-2.7,3.2-4c1.3-1.5,2.6-2.9,3.9-4.4c0.7-0.2,1.5-0.4,2.2-0.6
				c0.5-0.1,1-0.2,1.5-0.3c0.2,0,0.4-0.1,0.6-0.1c0.9-0.1,1.7-0.1,2.6-0.1c0.3,0,0.5,0,0.8,0c1.9,0.3,3.9,0.5,5.9,0.6
				c0.2,0,0.4,0,0.6,0l14.1,7.9c4.6,2.6,11-0.6,10.8-6.2C253.1,177.7,249.5,164.4,243,152.5z M161.3,44.5l-0.3,0.3
				c-0.1-0.1-0.3-0.2-0.5-0.3H161.3z M96.1,219c0-0.1,0.1-0.1,0.1-0.2l0.1,0.1c0.1,0.2,0.1,0.4,0.2,0.5L96.1,219z"/>
		</g>
		<g id="_x37_55cefe8-897c-4cba-a65d-c64016e1da7c">
			<path class="st2" d="M106,70.2L87.5,56c-0.4-0.3-0.9-0.6-1.4-0.7C66.3,38.9,45.8,23.5,24.5,9.2c-1.2-0.8-2.7-1-4.1-0.6
				C20.2,8.1,20.1,7.5,20,7c-0.6-2.7-5-2.8-5.6,0c-0.3,1.6-0.6,3.1-0.9,4.7c-3.2,3.9-4.3,9.4-4.5,14.5c0,1.3,0,2.6,0,3.8
				C6.5,41,6.1,52.3,7.8,63.4C6.7,67.6,6.7,72,7.7,76.2c0.5,1.6,1.6,2.9,3.1,3.6l0.3,2.5c-1,0.6-1.8,1.5-2.3,2.6
				c-1,2.5-0.2,5.7,2.3,7c2,1.1,2.8,2,3.3,4.2c-0.2-0.6,0.1,1.1,0.1,1.4c0,0.1,0,0.2,0,0.3c0,0.2-0.1,0.5-0.2,0.7
				c-0.9,0.8-1.6,1.7-2,2.8l-0.9,2.2c-0.9,2.2,0.6,5.3,2.6,6.3c0.6,0.3,1.4,0.6,2.1,0.7l1.9,3.8c0.3,0.6,0.7,1.1,1.2,1.5l0.1,0.1
				c0.9,1.6,3,2.9,4.8,2.8c26.6-2.6,51.7-13.3,72-30.8c1-0.9,1.6-2.3,1.6-3.7l8.4-4.4c1.7-0.9,2.8-2.9,2.8-4.8
				C108.8,72.9,107.6,71.5,106,70.2z"/>
			<path class="st2" d="M249.1,83.2c-0.2-0.1-0.4-0.2-0.5-0.3c4.8-13.8,6.6-28.5,4.7-43c-0.1-1.2-0.6-2.4-1.4-3.4
				c-0.7-4.7-1.3-9.5-2-14.2c0-0.2-0.1-0.3-0.1-0.5l-0.6-6.4c-0.1-1.2-0.5-2.3-1.3-3.3c0-0.8-0.1-1.7-0.1-2.5
				c-0.1-2-1.2-3.8-3.1-4.6c-2-0.8-3.8-0.3-5.5,1l-9.7,7.7c-0.4,0.3-0.7,0.7-0.9,1.1c-0.8,0-1.5,0.3-2.1,0.7l-21.2,14.4
				c-1.3,0.9-2.2,2.2-2.4,3.8L187,45.2c-0.4,0.3-0.8,0.7-1.1,1.1c-1.4-0.6-3-0.4-4.2,0.4c-3.1,2-5.4,5-6.4,8.5l-17.5,11.6
				c-1.3,0.8-2.2,2.2-2.4,3.7c-0.4,0.2-0.7,0.5-1,0.8c-1.8,1-2.9,2.9-3,4.9l0.2,1.5c0.3,0.9,0.8,1.8,1.4,2.5l1,0.8
				c0.7,0.4,1.5,0.7,2.3,0.7c0.4,0.6,1,1.1,1.6,1.4l2.2,1.3c0.4,1,1.1,1.8,2,2.3l2.7,1.4c0.2,1.5,1.1,2.8,2.4,3.5l32.3,16.3
				c0.4,0.7,1,1.2,1.7,1.6c10.8,5.1,22.3,8.8,34.1,10.9c2.4,0.4,4.3-0.4,5.4-2.1c0.4-0.3,0.7-0.7,0.9-1.1l6.2-10
				c1-1.7,0.9-3.8-0.3-5.3c0.2-2.3-0.5-4.6-1.9-6.4l2.8-3.3C253.9,92.1,254.2,83.9,249.1,83.2z"/>
		</g>
		<g id="_x35_f3ffa30-e402-4626-974f-1d02a5d07cde">
			<path class="st3" d="M62.1,208.2c-0.3-0.6-0.6-1.1-1.1-1.6c-0.5-0.6-1-1.2-1.4-1.8c-0.3-0.4-0.7-0.7-1.2-0.9
				c-0.3-0.8-0.8-1.6-1.4-2.2l-2.8-2.6c-0.5-3.3-2.8-6-6-7.1c-2.1-0.6-4-0.3-6,0.5h-0.1c-0.7-0.6-1.5-1-2.3-1.3
				c-4.4-1.6-9.2-1-13.3,1.1c-3,1.5-4.1,6.1-2.3,8.9c2,3.1,5.6,4,8.9,2.3c0.1-0.1,0.2-0.1,0.2-0.1h0.2c0.2,0,0.3-0.1,0.5-0.1l0,0
				c0.4,0.1,0.8,0.1,1.2,0.1l0,0c1.3,1.8,3.3,2.9,5.5,3.3l3.9,2.1c0.5,0.3,1.1,0.5,1.7,0.6l1.5,1.4c1.1,1,2.5,1.7,3.9,1.9l1.4,1.8
				l0.1,0.1c0.9,1.8,2.8,3,4.9,3c2.9,0,5.7-2.6,5.6-5.6C63.6,210.6,63.1,209.2,62.1,208.2z"/>
			<path class="st3" d="M199,208.2c0.3-0.6,0.6-1.1,1.1-1.6c0.5-0.6,0.9-1.2,1.4-1.8c0.3-0.4,0.7-0.7,1.2-0.9
				c0.3-0.8,0.8-1.6,1.4-2.2l2.7-2.6c0.4-3.2,2.8-6.1,5.8-7.1c2-0.6,3.9-0.3,5.8,0.5h0.1c0.7-0.6,1.4-1,2.2-1.3
				c4.2-1.6,8.9-1,12.8,1.1c2.9,1.5,4,6.1,2.2,8.9c-1.9,3.1-5.4,4-8.5,2.3c-0.1-0.1-0.2-0.1-0.2-0.1h-0.2l-0.5-0.1h-0.2
				c-0.4,0.1-0.8,0.1-1.2,0.1l0,0c-1.3,1.7-3.1,2.9-5.3,3.3l-3.8,2.1c-0.5,0.3-1,0.5-1.6,0.6l-1.4,1.4c-1,1-2.3,1.7-3.8,1.9
				l-1.4,1.8l-0.1,0.1c-0.9,1.8-2.7,3-4.7,3c-2.8,0-5.5-2.6-5.4-5.6C197.5,210.6,198.1,209.3,199,208.2z"/>
		</g>
		<g id="_x36_6a756a7-96d0-423a-8d80-ae508d7f201f">
			<path class="st4" d="M133.2,213.8c-0.2-0.1-0.4-0.1-0.7-0.1l0.1-1.9c0.1-1.6-1-3.1-2.5-3.8c0.4,0,0.7-0.1,1-0.1
				c1.1-0.1,0.2-0.8-0.9-0.8c-26.6-0.8-53-2.5-77.6-13.2c-1.1-0.5-2,1.1-0.9,1.6c1.5,0.6,3,1.3,4.5,1.9c-0.6,0.2-1.1,0.6-1.5,1
				c2.2,2.2,3.9,5.1,5.3,7.9c0.6,1.2,1.2,2.5,1.7,3.7c0.1,0,0.1,0.1,0.2,0.1c0.6,0.7,1.3,1.4,2.2,1.8v0.1c-0.1,0-0.2,0-0.3,0.1
				c-0.4,0.1-0.8,0.3-1,0.7c0.6,1.9,1,3.9,1.2,5.9c0.2,0.4,0.4,0.9,0.5,1.3c-0.1,0-0.2,0-0.3,0.1l-0.2,0.1v0.2
				c0,0.9-0.7,1.7-1.6,1.8c2.4,4.3,4.7,9,8.1,12.5c6.1,1.6,14.5,1.2,21.4,1.2h34.9c2.6,0,4.3-1,4.5-2.2c0.9-5.5,1.8-10.9,2.8-16.4
				c0.3-0.1,0.6-0.3,0.8-0.5C136,215.8,135.4,214.3,133.2,213.8z"/>
			<path class="st4" d="M127.2,213.8c0.2-0.1,0.4-0.1,0.7-0.1l-0.1-1.9c-0.1-1.6,1-3.1,2.5-3.8c-0.4,0-0.7-0.1-1-0.1
				c-1.1-0.1-0.2-0.8,0.9-0.8c26.6-0.8,53-2.5,77.6-13.2c1.1-0.5,2,1.1,0.9,1.6c-1.5,0.6-3,1.3-4.5,1.9c0.6,0.2,1.1,0.6,1.5,1
				c-2.2,2.2-3.9,5.1-5.3,7.9c-0.6,1.2-1.2,2.5-1.7,3.7c-0.1,0-0.1,0.1-0.2,0.1c-0.6,0.7-1.3,1.4-2.2,1.8v0.1c0.1,0,0.2,0,0.3,0.1
				c0.4,0.1,0.8,0.3,1,0.7c-0.6,1.9-1,3.9-1.2,5.9c-0.2,0.4-0.4,0.9-0.5,1.3c0.1,0,0.2,0,0.3,0.1l0.2,0.1c0,0.1,0,0.1,0,0.2
				c0,0.9,0.7,1.7,1.6,1.8c-2.4,4.3-4.7,9-8.1,12.5c-6.1,1.6-14.5,1.2-21.4,1.2h-34.9c-2.6,0-4.3-1-4.5-2.2
				c-0.9-5.5-1.8-10.9-2.8-16.4c-0.3-0.1-0.6-0.3-0.8-0.5C124.4,215.8,125,214.3,127.2,213.8z"/>
		</g>
		<g id="_x38_da978c9-3cfe-4168-98a5-2c7f33de82ea">
			<path d="M92.7,38.6c12.2-3.3,24.7-5.2,37.3-5.2c12.7,0.1,25.2,1.9,37.6,4.2c2.5,0.5,3.6-3.4,1.1-3.8C156,31.5,143,29.5,130,29.5
				s-25.8,1.9-38.4,5.3C89.2,35.5,90.3,39.3,92.7,38.6L92.7,38.6z"/>
			<path d="M75.3,216.2c-0.1,3.3,3,5.4,5.8,6.3c3.6,1.1,7.5,0.9,11.3,0.9h26.2h26.2c8.5,0,17.1,0.4,25.6-0.1c4-0.2,8.2-0.8,11.7-3
				c2.7-1.7,5.2-4.6,4.2-8.1c-0.7-2.4-4.6-1.4-3.8,1.1s-3.2,4.3-5,4.8c-3.2,1.1-6.6,1.2-9.9,1.3c-7.4,0.1-14.9,0-22.3,0h-44.9
				c-4.1,0-8.2,0.1-12.3,0c-1.9,0-3.8-0.2-5.6-0.7c-1.1-0.3-3.2-1.1-3.2-2.5C79.4,213.6,75.4,213.7,75.3,216.2L75.3,216.2z"/>
			<path d="M23.3,119.7c-2.8,21.2-13.9,40.3-18,61.2c-0.9,4.7-2.2,10.4-0.5,15c1.6,4.3,5.9,6.4,10.4,5.8c5-0.6,8.8-4.4,13.1-6.7
				c4.5-2.3,9.8-2.9,14.7-1.6c11,2.9,17.5,14.3,18,25.2c0.1,2.5,4.1,2.6,4,0c-0.5-9.6-4.7-19.1-12.5-24.9c-8.2-6.1-19.4-6.3-28-1
				c-3.7,2.3-8,6.3-12.7,4.9c-5.3-1.6-3.8-9-3.1-13.1c1.7-10.5,5.4-20.6,9-30.6c4-11.2,8.1-22.4,9.6-34.2
				C27.6,117.1,23.6,117.2,23.3,119.7L23.3,119.7z"/>
			<path d="M195.5,218.5c0.1,4.2-1.4,8.4-4.3,11.5c-3.2,3.4-7.2,4.1-11.4,4.4c-10.4,0.8-20.9,0.8-31.3,0.9
				c-21.6,0.2-43.3,0.5-64.9-0.7c-4.6-0.3-9.1-0.3-12.9-3.3s-5.9-8-5.7-12.8c0.1-2.6-3.9-2.5-4,0c-0.1,4.8,1.5,9.4,4.5,13.2
				c3.3,4.1,7.9,6,13,6.5c10.7,1.1,21.6,1,32.4,1.1c11.4,0.1,22.8,0.1,34.2,0c11.3-0.1,22.7-0.1,34-0.9c5.4-0.4,10.5-1.3,14.6-5.3
				c3.8-3.9,5.9-9.1,5.7-14.6C199.3,216,195.4,216,195.5,218.5L195.5,218.5z"/>
			<path d="M13.7,4.8C40,21,65.4,38.4,89.1,58.2c7,5.9,13.9,11.9,20.6,18c1.9,1.7,4.7-1.1,2.8-2.8c-23-21-47.7-40.2-73.7-57.4
				c-7.6-5-15.3-9.9-23.1-14.7C13.6,0,11.6,3.4,13.7,4.8L13.7,4.8z"/>
			<path d="M13,2C4,21.8,2.5,45.2,5.3,66.6C6,72.5,7.2,78.4,8.8,84.1l0.9-2.2L5,84.1c-0.9,0.4-1.3,1.9-0.7,2.7l3.7,5
				c0.6,0.8,1.2,1.7,1.8,2.4c0.4,0.4,0.9,0.7,1.2,1.2c1.1,1.8,0.5,4.2-1.3,5.3c-0.1,0.1-0.2,0.1-0.3,0.1c-1,0.5-1.1,1.8-0.7,2.7
				c3,6.1,7.2,11.5,10.1,17.5c0.3,0.6,1,1,1.7,1c14.1-1.4,27.9-5,40.9-10.6c12.2-5.3,23.5-12.4,33.9-20.6c6-4.7,11.7-9.7,17.2-14.9
				c1.9-1.8-0.9-4.6-2.8-2.8C90.8,91,69.2,106.2,43.9,113.5c-7.7,2.2-15.5,3.7-23.4,4.5l1.7,1c-3-6.1-7.2-11.5-10.1-17.5l-0.7,2.7
				c3.2-1.5,4.7-5.4,3.9-8.7c-0.4-1.8-1.4-2.7-2.6-4.1c-1.8-2.1-3.3-4.5-4.9-6.8l-0.8,3l4.7-2.3c0.8-0.4,1.1-1.4,0.9-2.2
				C6.9,63,6.5,40.6,11.1,20.2c1.2-5.5,3-10.9,5.3-16.1C17.5,1.7,14.1-0.3,13,2L13,2z"/>
			<path d="M14.2,4.9C30.3,11.1,46.8,16.1,62.6,23c14.2,6.2,28.8,14.3,37.8,27.3c5,7.3,8,15.7,8.7,24.5c0.2,2.5,4.2,2.5,4,0
				c-0.7-8.3-3-16.3-7.3-23.4c-4.1-6.8-9.6-12.5-15.9-17.3c-13.7-10.6-30.2-17-46.4-22.8C34.1,7.9,24.6,4.7,15.3,1.1
				C12.9,0.2,11.9,4.1,14.2,4.9L14.2,4.9z"/>
			<path d="M13.7,4.8C40,21,65.4,38.4,89.1,58.2c7,5.9,13.9,11.9,20.6,18c1.9,1.7,4.7-1.1,2.8-2.8c-23-21-47.7-40.2-73.7-57.4
				c-7.6-5-15.3-9.9-23.1-14.7C13.6,0,11.6,3.4,13.7,4.8L13.7,4.8z"/>
			<path d="M13,2C4,21.8,2.5,45.2,5.3,66.6C6,72.5,7.2,78.4,8.8,84.1l0.9-2.2L5,84.1c-0.9,0.4-1.3,1.9-0.7,2.7l3.7,5
				c0.6,0.8,1.2,1.7,1.8,2.4c0.4,0.4,0.9,0.7,1.2,1.2c1.1,1.8,0.5,4.2-1.3,5.3c-0.1,0.1-0.2,0.1-0.3,0.1c-1,0.5-1.1,1.8-0.7,2.7
				c3,6.1,7.2,11.5,10.1,17.5c0.3,0.6,1,1,1.7,1c14.1-1.4,27.9-5,40.9-10.6c12.2-5.3,23.5-12.4,33.9-20.6c6-4.7,11.7-9.7,17.2-14.9
				c1.9-1.8-0.9-4.6-2.8-2.8C90.8,91,69.2,106.2,43.9,113.5c-7.7,2.2-15.5,3.7-23.4,4.5l1.7,1c-3-6.1-7.2-11.5-10.1-17.5l-0.7,2.7
				c3.2-1.5,4.7-5.4,3.9-8.7c-0.4-1.8-1.4-2.7-2.6-4.1c-1.8-2.1-3.3-4.5-4.9-6.8l-0.8,3l4.7-2.3c0.8-0.4,1.1-1.4,0.9-2.2
				C6.9,63,6.5,40.6,11.1,20.2c1.2-5.5,3-10.9,5.3-16.1C17.5,1.7,14.1-0.3,13,2L13,2z"/>
			<path d="M14.2,4.9C30.3,11.1,46.8,16.1,62.6,23c14.2,6.2,28.8,14.3,37.8,27.3c5,7.3,8,15.7,8.7,24.5c0.2,2.5,4.2,2.5,4,0
				c-0.7-8.3-3-16.3-7.3-23.4c-4.1-6.8-9.6-12.5-15.9-17.3c-13.7-10.6-30.2-17-46.4-22.8C34.1,7.9,24.6,4.7,15.3,1.1
				C12.9,0.2,11.9,4.1,14.2,4.9L14.2,4.9z"/>
			<path d="M244.6,1.3c-26.5,16.4-52.2,34-76.2,54.1c-7,5.9-13.9,11.9-20.6,18c-1.9,1.7,0.9,4.5,2.8,2.8
				c22.8-20.8,47.1-39.8,72.9-56.8c7.6-5,15.3-9.9,23.1-14.7C248.8,3.4,246.8,0,244.6,1.3L244.6,1.3z"/>
			<path d="M243.9,4c4.3,9.4,6.5,19.6,7.6,29.8c1.1,10.8,1,21.7-0.4,32.4c-0.7,5.7-1.8,11.3-3.4,16.8c-0.2,0.8,0.1,1.9,0.9,2.2
				l4.7,2.3l-0.7-2.7c-1.6,2.2-3.1,4.7-4.9,6.7c-1.2,1.3-2.2,2.3-2.6,4.1c-0.8,3.3,0.7,7.3,3.9,8.7l-0.7-2.7
				c-3,6.1-7.2,11.5-10.1,17.5l1.7-1c-13.8-1.4-27.2-4.9-39.9-10.5c-11.7-5.2-22.7-12.1-32.8-20c-5.8-4.5-11.3-9.4-16.6-14.4
				c-1.9-1.7-4.7,1-2.8,2.8c19.5,18.4,41.8,34,67.8,41.5c7.9,2.2,16,3.8,24.2,4.6c0.7,0,1.4-0.4,1.7-1c3-6.1,7.2-11.5,10.1-17.5
				c0.4-0.9,0.3-2.2-0.7-2.7c-1.9-0.9-2.7-3.3-1.7-5.2c0-0.1,0.1-0.2,0.1-0.3c0.3-0.4,0.7-0.7,1-1c0.6-0.7,1.2-1.5,1.7-2.4l3.9-5.3
				c0.6-0.8,0.2-2.3-0.7-2.7l-4.7-2.3l0.9,2.2c5.9-20.9,6.3-44.2,1.4-65.3c-1.3-5.8-3.2-11.4-5.7-16.8C246.2-0.3,242.8,1.7,243.9,4
				L243.9,4z"/>
			<path d="M245.1,1.1C228.4,7.5,211.3,12.7,195,20c-14.8,6.6-29.6,15.3-38.9,29c-5.2,7.7-8,16.6-8.8,25.8c-0.2,2.5,3.8,2.5,4,0
				c0.6-7.8,3.1-15.4,7.2-22.1c4-6.4,9.4-11.8,15.4-16.2c13.4-10,29.4-16,45-21.7c9.1-3.3,18.3-6.4,27.3-9.8
				C248.5,4,247.5,0.2,245.1,1.1L245.1,1.1z"/>
			<path d="M18.9,200.6c14.4,6.5,29.2,12.1,43.1,19.7c2.2,1.2,4.2-2.2,2-3.4c-13.9-7.6-28.7-13.2-43.1-19.7
				C18.6,196.1,16.5,199.5,18.9,200.6z"/>
			<circle cx="72.9" cy="151.6" r="8.2"/>
			<path d="M233.1,119.7c2.8,21.2,13.6,40.3,17.9,61.1c0.5,2.5,0.9,5,1.2,7.5c0.2,2.5,0.5,5.4-1.1,7.5c-3,4.2-8.8,1.1-12-1
				c-4.3-2.8-8.4-5.2-13.7-5.9c-5-0.6-10,0.4-14.5,2.7c-9.7,5.1-15.1,16.2-15.6,26.9c-0.1,2.5,3.8,2.5,4,0
				c0.5-9.6,5.5-19.6,14.4-23.9c4.5-2.1,9.7-2.5,14.5-1.2c5.1,1.5,8.9,5.4,13.8,7.4c3.8,1.5,8.7,1.2,11.6-1.9
				c3.6-3.9,2.8-9.7,2.1-14.4c-1.5-10.5-5.2-20.5-8.7-30.5c-4-11.2-8.4-22.5-9.9-34.3C236.7,117.2,232.8,117.2,233.1,119.7
				L233.1,119.7z"/>
			<path d="M239.5,197.1c-14.4,6.5-29.2,12.1-43.1,19.7c-2.2,1.2-0.2,4.6,2,3.4c13.9-7.6,28.7-13.2,43.1-19.7
				C243.9,199.5,241.8,196.1,239.5,197.1z"/>
			<ellipse cx="187.5" cy="151.6" rx="8.2" ry="8.2"/>
		</g>
	</g>
</g>
<g id="圖層_2_1_">
	<g class="st5">
		<path d="M431.2,178.9v-58.2l-19.1,37.9H399l-19.2-37.9v58.2h-19.5V79.1h19.2l26.1,54l25.9-54h19.2v99.8H431.2z"/>
		<path d="M501.9,178.9V79.1h65.8v17.4h-46.3v23.4h39.4v17.4h-39.4v24.3h46.3v17.4H501.9z"/>
		<path d="M652.7,96.5v82.4h-19.5V96.5h-26.1V79.1h71.6v17.4H652.7z"/>
		<path d="M770.9,178.9l-5.9-17.7h-35.5l-6,17.7h-20.3l36.3-99.8h15.3l36.5,99.8H770.9z M747.7,108.5l-12.6,36.3h24.8L747.7,108.5z"
			/>
		<path d="M902.5,178.9v-58.2l-19.1,37.9h-13.2L851,120.7v58.2h-19.5V79.1h19.2l26.1,54l25.9-54H922v99.8H902.5z"/>
		<path d="M1033.6,168.8c-7,7-15.6,10.9-26.9,10.9c-11.4,0-20-3.9-27.1-10.9c-10.1-10.1-9.8-22.6-9.8-39.8c0-17.2-0.3-29.7,9.8-39.8
			c7-7,15.7-10.9,27.1-10.9c11.4,0,19.9,3.9,26.9,10.9c10.1,10.1,10,22.6,10,39.8C1043.5,146.2,1043.7,158.7,1033.6,168.8z
			 M1019.1,100.9c-2.8-3.2-7.2-5.3-12.5-5.3s-9.8,2.1-12.6,5.3c-3.8,4.2-4.8,8.8-4.8,28c0,19.2,1,23.8,4.8,28
			c2.8,3.2,7.3,5.3,12.6,5.3s9.7-2.1,12.5-5.3c3.8-4.2,4.9-8.8,4.9-28C1024,109.8,1022.9,105.1,1019.1,100.9z"/>
		<path d="M1150.4,178.9l-39.5-61.3v61.3h-19.5V79.1h17.4l39.5,61.1V79.1h19.5v99.8H1150.4z"/>
		<path d="M1277,178.9l-25.7-45.4l-12.9,15.4v30h-19.5V79.1h19.5v43.5l35.2-43.5h23.7l-33.1,39.7l35.5,60.2H1277z"/>
	</g>
</g>
</svg>
