<?xml version="1.0" encoding="utf-8"?>
<!-- Generator: Adobe Illustrator 22.1.0, SVG Export Plug-In . SVG Version: 6.00 Build 0)  -->
<svg version="1.1" id="圖層_1" xmlns:ev="http://www.w3.org/2001/xml-events"
	 xmlns="http://www.w3.org/2000/svg" xmlns:xlink="http://www.w3.org/1999/xlink" x="0px" y="0px" viewBox="0 0 521 521"
	 style="enable-background:new 0 0 521 521;" xml:space="preserve">
<style type="text/css">
	.st0{fill:#F99E49;}
	.st1{fill:#916545;}
	.st2{fill:#EFEFEF;}
	.st3{fill:#FFFFFB;}
</style>
<g id="_x37_d9216fc-3e79-4bc4-a8d5-43a771b35fd8">
	<path class="st0" d="M467.4,320.6c1.4-0.3,3,0.2,3.5,1.6c0.5,1.1,0.9,2.3,1.3,3.4c0.5,0.5,1,1.1,1.5,1.6c0.2,0.1,0.4,0.2,0.6,0.3
		c1.1,0.7,2.1,1.5,3,2.5L453,271.7c-2.4-5.7-4.3-10.7-10.7-12.8c-2.8-0.9-5.8-1.5-8.7-2.2c-5.6-1.5-11.1-3.1-16.6-4.9
		c-5.7-1.9-11.3-3.8-16.9-5.9c-2.6-1-5.2-2-7.8-3l-2.2-0.9l-0.7-0.3l-0.6-0.3l-2.7-1.2c-12.2-5.4-24.1-11.4-35.6-18.1
		c-0.9-0.5-1.9-0.9-2.9-1.2l-54.2-43.7c0.1-2,0.3-4,0.4-6c2.6,2.2,6.3,2.7,9.3-0.5l2.9-3.2c11.5-4.8,21.8-12,30.2-21.2
		c1.7-1.7,2.3-4.2,1.7-6.5l46.1-33.2c2.5-1.9,4-4.8,3.4-7.7l6.4-3c3.1-1.5,7.4-4.2,11-3.7c3.9,0.6,7.8-1,8.9-5.1
		c0.3-1,0.3-2.1,0.1-3.1l4.1-2.2c1.3-0.7,2.3-1.8,2.9-3.1c0.1,0,0.3-0.1,0.4-0.1l17.1-6.6c2.1-0.7,3.6-2.4,4.1-4.5
		c0.4-0.2,0.7-0.5,1.1-0.8l0.7-0.7c0.5-0.5,0.9-1.1,1.1-1.8c0.7-1.4,0.7-3,0-4.3c-0.2-0.7-0.6-1.3-1.1-1.8c-1.1-1.1-2.5-1.6-4-1.6
		c-1.5,0-2.9,0.6-4,1.6l-0.7,0.7c-0.5,0.5-0.9,1.1-1.1,1.8c-0.2,0.4-0.4,0.8-0.4,1.2l-15.7,6c-0.6,0.2-1.1,0.5-1.7,0.9
		c-2-0.6-4.1-0.4-5.9,0.6l-17.2,8.9c-1.2,0.7-2.2,1.7-2.8,3c-5,2.1-9.9,4.8-14.7,7.1l-17.3,8.1c-1.9-0.6-3.8-0.3-5.4,0.7l-8.2,5.3
		c-0.4,0.2-0.7,0.5-1,0.7c-1.9,1-3.1,2.9-3.3,5.1c-1.4-0.1-2.9,0.3-4.1,1c-1.3,0.8-2.5,1.6-3.7,2.4c-1-1.7-2.6-2.9-4.6-3.2
		c-30-6.1-60.6-7.7-91-4.7c-0.8,0.1-1.7,0.3-2.5,0.6l-14.1-0.4c-1.9,0-3.8,0.7-5.2,2.1c-1.5-0.4-3.1-0.7-4.7-0.7
		c-2.2-0.5-4.5-0.6-6.7-0.4c-5.2,0.7-9.6,3.5-10.4,9.1c-0.1,0.9-0.1,1.8,0,2.6c-5.5-4.7-11.3-9-17.4-13c-0.9-0.6-1.9-0.9-3-0.9
		c-19.8-15.1-41.7-27.3-65.1-36c-1.8-0.6-3.7-0.3-5.2,0.9l-13.7-9.5c-2.8-1.9-7-0.5-8.5,2.2c-1.8,3.1-0.5,6.6,2.2,8.5l52.7,36.4
		c1.5,1,3.4,1.1,5.1,0.5l23.8,19.6c1.5,1.2,3.3,2,5.2,2.3l45.9,38.4c1.2,1.1,2.7,1.8,4.3,2.1l7.2,6.4l0.5,1.2
		c-0.2,0.8-0.5,1.7-0.7,2.5c0,0.2-0.1,0.4-0.1,0.5c0,0.1-0.1,0.2-0.1,0.3c-0.4,0.7-0.7,1.3-1,2s-0.7,1.3-1.1,1.9
		c-0.3,0.4-0.7,1.1-0.9,1.2c-0.4,0.5-0.8,0.9-1.3,1.4c-9.9,5.6-18.9,12.7-26.7,21c-2.5,0.1-4.9,1-6.8,2.6
		c-22.6,18.1-48,32.3-75.2,42.2c-0.7,0.3-1.5,0.6-2.1,1.1c-1.2-0.7-2.6-0.9-4-0.8c-9.9,1.1-19.6,3.4-28.8,7.1c-1.5,0-3,0.4-4.3,1.3
		l-2.6,1.7c-4.1,2.7-5.9,8.2-3.3,12.6c0.1,0.1,0.2,0.3,0.3,0.4c-1.2,1.4-2.3,2.9-3.2,4.5c-3.3,5.7-4.8,12.4-6.7,18.7l-12.1,41.9
		l-5.9,20.7c-2.1,7.3-4.9,14.7-5.5,22.4c0,0.7-0.1,1.4,0,2.1l-0.2,0.2l-2.1,2.6c-1,1.5-1.5,3.2-1.6,4.9c-0.3,1.1-0.3,2.3,0,3.5
		c0.1,1.8,0.6,3.4,1.6,4.9l2.1,2.6l2.6,2.1c1.5,1,3.2,1.5,4.9,1.6c1.8,0.4,3.6,0.3,5.2-0.2l1.8-0.5c1.7-0.4,3.2-1.2,4.5-2.3
		c0,0,0.1-0.1,0.2-0.1c6-0.2,11.5-3.5,14.6-8.7c0.7-0.3,1.4-0.7,2-1.1c4.8,2.4,10.4,1.5,14.9-2.1c2.8-0.2,5.5-1.4,7.7-3.2
		c2,0.6,4.1,1.2,6,2l0.6,0.2c0.2,0.1,1.1,0.4,1.3,0.5c1.2,0.5,2.4,1.1,3.5,1.7c2.6,1.4,5.2,2.9,7.6,4.5c1.1,0.7,2.1,1.5,3.1,2.2
		c0.6,0.5,1.1,0.9,1.7,1.4c2.1,1.8,4.1,3.7,6,5.8c0.9,1,1.8,1.9,2.6,3c0.3,0.4,0.6,0.7,0.9,1.1l0.4,0.5c1.7,2.4,3.3,4.9,4.8,7.4
		c0.1,0.2,0.2,0.4,0.3,0.5c1.5,5.7,3,11.4,4.5,17.1c0.5,1.9,1.5,3.7,2.9,5.2c-0.7,10.8,6.3,22.2,16.3,26.6c13.2,5.9,28.6,4.1,42.6,4
		c13.7-0.1,27.4-0.4,41.1-0.9c2.3,2.5,5.6,3.9,9,3.8l70.1-1.7c21.8-0.5,53.5,2.4,62-23.7c1-3,1.3-6.2,1-9.4l0.8-7.3
		c0.4-1.1,0.7-2.2,1.1-3.3c4.4-7.3,9.1-14.4,14.2-21.2c0.7-1.1,1.5-2.1,2.3-3.1c0.4-0.4,1.2-1.5,1.3-1.6c1.9-2.4,3.9-4.8,5.9-7.2
		c2.3-2.7,4.7-5.4,7.1-8c1.3-0.4,2.7-0.7,4.1-1.1c0.9-0.2,1.8-0.4,2.7-0.5c0.4,0,0.7-0.2,1.1-0.3c1.6-0.2,3.1-0.2,4.7-0.1
		c0.4,0,0.9,0,1.4,0c3.5,0.6,7.1,1,10.7,1.1c0.4,0,0.7,0,1.1,0l25.7,14.4c8.5,4.8,20.1-1.1,19.8-11.4
		C485.7,366.6,479.2,342.4,467.4,320.6z M318.2,123.5l-0.6,0.5c-0.3-0.2-0.5-0.4-0.8-0.5H318.2z M199.2,442c0-0.1,0.1-0.2,0.2-0.3
		l0.1,0.1c0.1,0.3,0.2,0.7,0.4,1L199.2,442z"/>
</g>
<g id="_x37_55cefe8-897c-4cba-a65d-c64016e1da7c">
	<path class="st1" d="M217.2,170.4l-33.9-26c-0.8-0.6-1.7-1-2.6-1.2c-36-30-73.5-58.1-112.4-84.2c-2.2-1.4-5-1.8-7.5-1.1
		c-0.2-1-0.4-2-0.6-3c-1-5-9.2-5-10.1,0c-0.6,2.9-1.1,5.7-1.7,8.5c-5.9,7.1-7.8,17.2-8.2,26.4c-0.1,2.3-0.1,4.7,0,7
		c-4.6,20-5.3,40.7-2.2,60.9c-2,7.7-2.1,15.7-0.2,23.4c0.8,2.9,3,5.3,5.7,6.5l0.5,4.6c-1.8,1.1-3.3,2.8-4.1,4.8
		c-1.9,4.5-0.3,10.3,4.2,12.7c3.7,2,5.1,3.7,6.1,7.8c-0.3-1.1,0.1,2.1,0.1,2.6c0,0.2,0,0.4,0,0.5c-0.1,0.4-0.2,0.9-0.3,1.3
		c-1.6,1.4-2.9,3.2-3.7,5.2l-1.6,4c-1.6,4,1,9.6,4.7,11.5c1.2,0.6,2.5,1,3.8,1.2l3.4,6.9c0.5,1.1,1.3,2,2.3,2.8l0.1,0.3
		c1.6,2.9,5.4,5.4,8.8,5.1c48.6-4.7,94.5-24.3,131.4-56.1c1.9-1.7,3-4.2,2.9-6.7l15.2-8c3.1-1.6,5.1-5.3,5.1-8.8
		C222.3,175.3,220.2,172.7,217.2,170.4z"/>
	<path class="st1" d="M478.5,194c-0.3-0.2-0.7-0.4-1-0.6c8.8-25.1,12-52,8.5-78.6c-0.3-2.2-1.1-4.4-2.6-6.2
		c-1.2-8.6-2.4-17.3-3.7-25.9c0-0.3-0.1-0.6-0.2-0.9l-1.1-11.7c-0.2-2.2-1-4.3-2.4-5.9c-0.1-1.5-0.1-3-0.2-4.6
		c-0.2-3.7-2.2-7-5.6-8.4c-3.7-1.5-7-0.5-10,1.9l-17.8,14c-0.7,0.5-1.2,1.2-1.6,2c-1.4,0-2.7,0.5-3.9,1.3l-38.6,26.3
		c-2.4,1.6-4,4.1-4.5,6.9l-29,21c-0.7,0.6-1.5,1.2-2.1,1.9c-2.6-1-5.4-0.7-7.7,0.7c-5.7,3.6-9.8,9.2-11.7,15.6l-31.9,21.1
		c-2.4,1.5-4,4-4.4,6.8c-0.7,0.4-1.3,1-1.9,1.5c-3.3,1.9-5.3,5.2-5.4,9l0.4,2.7c0.5,1.7,1.4,3.3,2.6,4.5l2.1,1.6
		c1.3,0.7,2.7,1.2,4.2,1.3c0.7,1.1,1.8,1.9,2.9,2.6l4,2.3c0.7,1.8,2,3.2,3.7,4.2l4.8,2.6c0.4,2.7,2,5.1,4.4,6.4l58.9,29.7
		c0.7,1.2,1.8,2.2,3.1,2.9c19.8,9.3,40.7,16,62.2,19.9c4.4,0.8,7.9-0.7,9.9-3.8c0.7-0.6,1.2-1.3,1.7-2l11.3-18.2
		c1.9-3,1.7-6.9-0.5-9.8c0.4-4.2-0.9-8.4-3.4-11.7l5.1-5.9C487.3,210.3,487.7,195.3,478.5,194z"/>
</g>
<g id="_x35_f3ffa30-e402-4626-974f-1d02a5d07cde">
	<path class="st2" d="M137.1,422.2c-0.5-1.1-1.2-2.1-2-3c-0.9-1.1-1.8-2.2-2.6-3.3c-0.6-0.7-1.4-1.2-2.2-1.6c-0.5-1.5-1.5-3-2.6-4.1
		l-5.2-4.7c-0.9-6-5.2-11-10.9-12.9c-3.7-1.1-7.4-0.6-10.9,0.9l-0.2,0.1c-1.3-1-2.7-1.9-4.3-2.4c-8-3-16.8-1.7-24.3,2.1
		c-5.6,2.8-7.6,11.1-4.2,16.2c3.7,5.6,10.3,7.2,16.2,4.2c0.2-0.1,0.3-0.2,0.4-0.2l0.4,0c0.3-0.1,0.6-0.1,0.9-0.2h0.3
		c0.7,0.1,1.5,0.2,2.2,0.2l0,0c2.4,3.2,6,5.4,10,6l7.1,3.9c1,0.5,2,0.9,3,1.1l2.7,2.5c2,1.9,4.5,3,7.2,3.4l2.6,3.3
		c0,0,0.1,0.1,0.2,0.2c1.7,3.3,5.2,5.5,8.9,5.5c5.3,0,10.4-4.7,10.2-10.2C139.8,426.6,138.8,424.2,137.1,422.2z"/>
	<path class="st2" d="M386.9,422.2c0.5-1.1,1.1-2.1,2-3c0.8-1.1,1.7-2.2,2.5-3.3c0.6-0.7,1.3-1.2,2.1-1.6c0.5-1.5,1.4-3,2.5-4.1
		l5-4.7c0.7-5.8,5.2-11.2,10.5-12.9c3.6-1.1,7.1-0.6,10.5,0.9l0.2,0.1c1.2-1,2.6-1.9,4.1-2.4c7.7-3,16.2-1.7,23.4,2.1
		c5.3,2.8,7.3,11.1,4.1,16.2c-3.5,5.6-9.9,7.2-15.6,4.2c-0.2-0.1-0.3-0.2-0.4-0.2l-0.4,0l-0.8-0.2h-0.3c-0.7,0.1-1.4,0.2-2.1,0.2
		l0,0c-2.3,3.2-5.7,5.4-9.6,6l-6.9,3.9c-0.9,0.5-1.9,0.9-2.9,1.1l-2.6,2.5c-1.9,1.9-4.3,3-6.9,3.4l-2.5,3.3c0,0-0.1,0.1-0.2,0.2
		c-1.6,3.3-4.9,5.5-8.6,5.5c-5.1,0-10-4.7-9.8-10.2C384.3,426.6,385.3,424.2,386.9,422.2z"/>
</g>
<g id="_x36_6a756a7-96d0-423a-8d80-ae508d7f201f">
	<path class="st3" d="M266.9,432.5c-0.4-0.1-0.8-0.2-1.2-0.3l0.2-3.5c0.1-3-1.9-5.7-4.5-6.9c0.7,0,1.3-0.1,1.9-0.2
		c2.1-0.3,0.4-1.4-1.7-1.5c-48.6-1.4-96.7-4.6-141.7-24.1c-1.9-0.8-3.6,2-1.7,2.9c2.7,1.2,5.5,2.3,8.2,3.4c-1,0.4-2,1-2.7,1.8
		c4.1,4.1,7.2,9.3,9.6,14.4c1.1,2.2,2.1,4.5,3,6.8c0.1,0.1,0.2,0.2,0.3,0.3c1.1,1.4,2.4,2.5,4,3.3l0,0.2c-0.2,0-0.4,0.1-0.6,0.1
		c-0.7,0.1-1.4,0.6-1.8,1.3c1.1,3.5,1.9,7.1,2.2,10.8c0.3,0.8,0.7,1.6,1,2.4c-0.2,0-0.4,0.1-0.5,0.1l-0.4,0.1v0.4
		c0,1.7-1.2,3.1-2.9,3.3c4.3,7.9,8.6,16.4,14.9,22.9c11.2,3,26.5,2.2,39,2.2H255c4.7,0,7.8-1.8,8.2-4c1.7-10,3.3-20,5-30
		c0.5-0.2,1-0.5,1.5-0.9C271.9,436.1,270.9,433.4,266.9,432.5z"/>
	<path class="st3" d="M255.9,432.5c0.4-0.1,0.8-0.2,1.2-0.3l-0.2-3.5c-0.1-3,1.9-5.7,4.5-6.9c-0.7,0-1.3-0.1-1.9-0.2
		c-2.1-0.3-0.4-1.4,1.7-1.5c48.6-1.4,96.7-4.6,141.7-24.1c1.9-0.8,3.6,2,1.7,2.9c-2.7,1.2-5.5,2.3-8.2,3.4c1,0.4,2,1,2.7,1.8
		c-4.1,4.1-7.2,9.3-9.6,14.4c-1.1,2.2-2.1,4.5-3,6.8c-0.1,0.1-0.2,0.2-0.3,0.3c-1.1,1.4-2.4,2.5-4,3.3l0,0.2c0.2,0,0.4,0.1,0.6,0.1
		c0.7,0.1,1.4,0.6,1.8,1.3c-1.1,3.5-1.9,7.1-2.2,10.8c-0.3,0.8-0.7,1.6-1,2.4c0.2,0,0.4,0.1,0.5,0.1l0.4,0.1c0,0.1,0,0.2,0,0.4
		c0,1.7,1.2,3.1,2.9,3.3c-4.3,7.9-8.6,16.4-14.9,22.9c-11.2,3-26.5,2.2-39,2.2h-63.8c-4.7,0-7.9-1.8-8.2-4c-1.7-10-3.3-20-5.1-30
		c-0.5-0.2-1-0.5-1.5-0.9C250.9,436.1,251.9,433.4,255.9,432.5z"/>
</g>
<g id="_x38_da978c9-3cfe-4168-98a5-2c7f33de82ea">
	<path d="M193,112.6c22.3-6,45-9.6,68.1-9.5s46,3.5,68.7,7.7c4.5,0.8,6.5-6.1,1.9-7c-23.3-4.3-46.8-7.9-70.6-8
		c-23.7-0.1-47.2,3.5-70,9.7C186.6,106.9,188.5,113.9,193,112.6L193,112.6z"/>
	<path d="M161.2,436.8c-0.3,6,5.4,9.8,10.6,11.4c6.6,2.1,13.8,1.7,20.6,1.7l47.9,0l47.9,0c15.6,0,31.2,0.7,46.8-0.2
		c7.2-0.4,15-1.5,21.3-5.4c5-3.1,9.5-8.5,7.6-14.8c-1.4-4.5-8.3-2.6-7,1.9c1.4,4.5-5.9,7.8-9.2,8.9c-5.8,1.9-12,2.2-18.2,2.3
		c-13.6,0.2-27.1,0-40.7,0l-81.9,0c-7.4,0-14.9,0.1-22.4,0c-3.4-0.1-6.9-0.3-10.2-1.3c-2.1-0.6-5.9-2-5.8-4.6
		C168.6,432.2,161.4,432.2,161.2,436.8L161.2,436.8z"/>
	<path d="M66.2,260.6c-5.1,38.7-25.4,73.5-32.9,111.7c-1.7,8.5-4.1,19-0.8,27.4c3,7.8,10.8,11.6,18.9,10.6c9.2-1.2,16-8,23.9-12.1
		c8.3-4.3,17.8-5.3,26.8-3c20.1,5.3,31.9,26.1,32.8,45.9c0.2,4.6,7.4,4.7,7.2,0c-0.8-17.5-8.6-34.9-22.8-45.5
		c-14.9-11.1-35.3-11.5-51-1.8c-6.7,4.1-14.7,11.6-23.2,8.9c-9.7-3-6.9-16.4-5.7-23.9c3.1-19.2,9.9-37.6,16.4-55.8
		c7.2-20.4,14.8-40.9,17.6-62.4C74.1,256,66.8,256,66.2,260.6L66.2,260.6z"/>
	<path d="M380.6,441.1c0.3,7.8-2.6,15.2-7.8,20.9c-5.9,6.1-13.1,7.4-20.8,8.1c-19,1.5-38.2,1.5-57.2,1.6
		c-39.4,0.4-79.1,0.9-118.5-1.3c-8.5-0.5-16.7-0.5-23.6-6c-7-5.6-10.7-14.6-10.4-23.3c0.2-4.7-7.1-4.7-7.2,0
		c-0.2,8.7,2.7,17.2,8.2,24c6,7.4,14.5,10.9,23.8,11.9c19.6,2,39.5,1.8,59.1,2c20.8,0.2,41.7,0.2,62.5,0c20.7-0.1,41.5-0.1,62.1-1.6
		c9.9-0.7,19.3-2.4,26.6-9.7c7-7.1,10.8-16.7,10.5-26.6C387.6,436.4,380.4,436.4,380.6,441.1L380.6,441.1z"/>
	<path d="M48.8,50.8c47.9,29.6,94.4,61.4,137.6,97.5c12.8,10.7,25.3,21.6,37.6,32.9c3.4,3.1,8.5-2,5.1-5.1
		c-42-38.3-87-73.4-134.5-104.8c-13.9-9.2-27.9-18.2-42.1-26.9C48.5,42.1,44.8,48.4,48.8,50.8L48.8,50.8z"/>
	<path d="M47.5,45.9C31,82,28.4,124.7,33.3,163.7c1.3,10.8,3.4,21.5,6.3,32l1.7-4.1l-8.5,4.1c-1.6,0.8-2.4,3.5-1.3,4.9l6.7,9.2
		c1,1.5,2.1,3,3.3,4.5c0.7,0.7,1.6,1.3,2.2,2.2c2,3.3,0.9,7.7-2.5,9.7c-0.2,0.1-0.3,0.2-0.5,0.3c-1.9,0.9-2.1,3.3-1.3,4.9
		c5.4,11.1,13.1,20.9,18.5,32c0.6,1.1,1.9,1.8,3.1,1.8c25.7-2.6,50.9-9.1,74.7-19.3c22.3-9.7,42.8-22.7,62-37.5
		c10.9-8.5,21.4-17.7,31.4-27.2c3.4-3.2-1.7-8.3-5.1-5.1c-34.6,32.6-73.9,60.4-120.1,73.7c-14,4-28.3,6.7-42.8,8.2l3.1,1.8
		c-5.4-11.1-13.1-20.9-18.5-32l-1.3,4.9c5.9-2.7,8.5-9.9,7.1-16c-0.7-3.3-2.6-5-4.7-7.4c-3.3-3.8-6-8.3-9-12.3l-1.3,4.9l8.5-4.1
		c1.4-0.7,2.1-2.6,1.7-4.1C36.2,157,35.4,116.1,44,78.9c2.2-10.1,5.5-20,9.7-29.4C55.7,45.3,49.5,41.6,47.5,45.9L47.5,45.9z"/>
	<path d="M49.7,51.2c29.3,11.2,59.5,20.3,88.3,33c25.8,11.4,52.5,26.1,69.1,49.8c9.2,13.3,14.7,28.7,16,44.7c0.4,4.6,7.6,4.7,7.2,0
		c-1.3-15.1-5.5-29.7-13.3-42.8c-7.4-12.4-17.6-22.8-29-31.6c-25.1-19.3-55.3-30.9-84.8-41.6c-17.2-6.2-34.5-12-51.6-18.6
		C47.3,42.6,45.4,49.5,49.7,51.2L49.7,51.2z"/>
	<path d="M48.8,50.8c47.9,29.6,94.4,61.4,137.6,97.5c12.8,10.7,25.3,21.6,37.6,32.9c3.4,3.1,8.5-2,5.1-5.1
		c-42-38.3-87-73.4-134.5-104.8c-13.9-9.2-27.9-18.2-42.1-26.9C48.5,42.1,44.8,48.4,48.8,50.8L48.8,50.8z"/>
	<path d="M47.5,45.9C31,82,28.4,124.7,33.3,163.7c1.3,10.8,3.4,21.5,6.3,32l1.7-4.1l-8.5,4.1c-1.6,0.8-2.4,3.5-1.3,4.9l6.7,9.2
		c1,1.5,2.1,3,3.3,4.5c0.7,0.7,1.6,1.3,2.2,2.2c2,3.3,0.9,7.7-2.5,9.7c-0.2,0.1-0.3,0.2-0.5,0.3c-1.9,0.9-2.1,3.3-1.3,4.9
		c5.4,11.1,13.1,20.9,18.5,32c0.6,1.1,1.9,1.8,3.1,1.8c25.7-2.6,50.9-9.1,74.7-19.3c22.3-9.7,42.8-22.7,62-37.5
		c10.9-8.5,21.4-17.7,31.4-27.2c3.4-3.2-1.7-8.3-5.1-5.1c-34.6,32.6-73.9,60.4-120.1,73.7c-14,4-28.3,6.7-42.8,8.2l3.1,1.8
		c-5.4-11.1-13.1-20.9-18.5-32l-1.3,4.9c5.9-2.7,8.5-9.9,7.1-16c-0.7-3.3-2.6-5-4.7-7.4c-3.3-3.8-6-8.3-9-12.3l-1.3,4.9l8.5-4.1
		c1.4-0.7,2.1-2.6,1.7-4.1C36.2,157,35.4,116.1,44,78.9c2.2-10.1,5.5-20,9.7-29.4C55.7,45.3,49.5,41.6,47.5,45.9L47.5,45.9z"/>
	<path d="M49.7,51.2c29.3,11.2,59.5,20.3,88.3,33c25.8,11.4,52.5,26.1,69.1,49.8c9.2,13.3,14.7,28.7,16,44.7c0.4,4.6,7.6,4.7,7.2,0
		c-1.3-15.1-5.5-29.7-13.3-42.8c-7.4-12.4-17.6-22.8-29-31.6c-25.1-19.3-55.3-30.9-84.8-41.6c-17.2-6.2-34.5-12-51.6-18.6
		C47.3,42.6,45.4,49.5,49.7,51.2L49.7,51.2z"/>
	<path d="M470.3,44.5c-48.4,29.9-95.3,62.1-139,98.7c-12.8,10.7-25.3,21.6-37.6,32.9c-3.4,3.1,1.7,8.2,5.1,5.1
		c41.6-37.9,86.1-72.6,133-103.6c13.9-9.2,27.9-18.2,42.2-26.9C477.9,48.4,474.2,42.1,470.3,44.5L470.3,44.5z"/>
	<path d="M469,49.5c7.8,17.1,11.9,35.9,13.8,54.5c2.1,19.7,1.9,39.6-0.7,59.2c-1.3,10.4-3.3,20.6-6.2,30.6c-0.4,1.5,0.3,3.4,1.7,4.1
		l8.5,4.1l-1.3-4.9c-2.9,4-5.6,8.6-9,12.3c-2.2,2.3-4,4.2-4.8,7.5c-1.5,6.1,1.2,13.3,7.1,16l-1.3-4.9c-5.4,11.1-13.1,20.9-18.5,32
		l3.1-1.8c-25.1-2.5-49.7-8.9-72.8-19.1c-21.4-9.5-41.4-22.1-59.8-36.5c-10.5-8.3-20.6-17.1-30.3-26.3c-3.4-3.2-8.5,1.9-5.1,5.1
		c35.6,33.6,76.2,62.1,123.8,75.7c14.5,4.1,29.3,6.9,44.2,8.3c1.3,0,2.5-0.7,3.1-1.8c5.4-11.1,13.1-20.9,18.5-32
		c0.8-1.6,0.6-4.1-1.3-4.9c-3.5-1.7-4.9-5.9-3.2-9.4c0.1-0.2,0.2-0.3,0.3-0.5c0.5-0.8,1.2-1.2,1.9-1.9c1.1-1.4,2.2-2.8,3.2-4.3
		l7.1-9.7c1.1-1.5,0.4-4.2-1.3-4.9l-8.5-4.1l1.7,4.1c10.8-38.2,11.5-80.6,2.5-119.2c-2.4-10.5-5.9-20.8-10.3-30.7
		c-1.9-4.2-8.2-0.6-6.3,3.7L469,49.5z"/>
	<path d="M471.2,44.2c-30.5,11.6-61.7,21.1-91.5,34.4c-27,12.1-54,27.9-71,52.9c-9.5,14.1-14.7,30.3-16.1,47.2
		c-0.4,4.6,6.8,4.6,7.2,0c1.1-14.3,5.6-28.2,13.1-40.4c7.2-11.6,17.1-21.5,28.1-29.6c24.5-18.2,53.7-29.3,82.2-39.6
		c16.6-6,33.4-11.7,49.9-17.9C477.4,49.5,475.5,42.5,471.2,44.2L471.2,44.2z"/>
	<path d="M58.1,408.3c26.3,11.9,53.3,22.1,78.7,35.9c4.1,2.2,7.8-4,3.7-6.3c-25.4-13.8-52.4-24-78.7-35.9
		C57.6,400.1,53.9,406.3,58.1,408.3z"/>
	<circle cx="156.8" cy="318.9" r="15"/>
	<path d="M449.3,260.6c5.1,38.7,24.8,73.5,32.7,111.5c1,4.5,1.7,9.1,2.2,13.7c0.4,4.5,0.9,9.9-2,13.7c-5.6,7.6-16,2-21.9-1.9
		c-7.9-5.2-15.4-9.6-24.9-10.7c-9.1-1.1-18.3,0.7-26.4,4.9c-17.8,9.3-27.6,29.7-28.5,49.1c-0.2,4.7,7,4.6,7.2,0
		c0.8-17.5,10-35.8,26.3-43.6c8.3-3.9,17.7-4.6,26.4-2.2c9.3,2.7,16.2,9.9,25.2,13.4c6.9,2.8,15.8,2.2,21.2-3.5
		c6.6-7.1,5-17.6,3.7-26.3c-2.8-19.1-9.5-37.5-16-55.7c-7.2-20.4-15.3-41.1-18.1-62.7C456,256.1,448.7,256,449.3,260.6L449.3,260.6z
		"/>
	<path d="M461,402c-26.3,11.9-53.3,22.1-78.7,35.9c-4.1,2.2-0.4,8.5,3.7,6.3c25.4-13.8,52.4-24,78.6-35.9
		C468.9,406.3,465.2,400.1,461,402z"/>
	<ellipse cx="366" cy="318.8" rx="15" ry="15"/>
</g>
</svg>
